<svg width="160" height="48" viewBox="0 0 160 48" fill="none" xmlns="http://www.w3.org/2000/svg">
<rect width="160" height="48" rx="4" fill="#FF1F29"/>
<path d="M15.13 13.338C14.08 13.96 12.02 16.328 12 16.95V17.98C12 19.283 13.22 20.43 14.325 20.43C15.655 20.43 16.761 19.328 16.761 18.02C16.761 19.328 17.831 20.43 19.161 20.43C20.489 20.43 21.523 19.328 21.523 18.02C21.523 19.328 22.66 20.43 23.989 20.43H24.013C25.343 20.43 26.479 19.328 26.479 18.02C26.479 19.328 27.513 20.43 28.842 20.43C30.172 20.43 31.242 19.328 31.242 18.02C31.242 19.328 32.348 20.43 33.677 20.43C34.78 20.43 36 19.282 36 17.98V16.95C35.98 16.33 33.918 13.96 32.87 13.338C29.617 13.224 27.362 13.204 24 13.205C20.638 13.205 16.055 13.258 15.13 13.338V13.338ZM21.506 19.815C21.3788 20.0365 21.2213 20.2391 21.038 20.417C20.538 20.907 19.848 21.212 19.091 21.212C18.362 21.2123 17.662 20.9269 17.141 20.417C16.9652 20.2424 16.815 20.0438 16.695 19.827C16.5613 20.0453 16.3977 20.2439 16.209 20.417C15.6879 20.9267 14.9879 21.2121 14.259 21.212C14.1687 21.2092 14.0796 21.1916 13.995 21.16C13.903 22.1409 13.847 23.1249 13.827 24.11V24.115L13.821 25.282C13.841 27.616 13.591 32.846 14.851 34.132C16.803 34.586 20.396 34.794 24.001 34.795C27.606 34.795 31.199 34.585 33.151 34.131C34.411 32.847 34.161 27.617 34.181 25.283L34.175 24.116V24.112C34.1556 23.1269 34.0995 22.1429 34.007 21.162C33.9226 21.1931 33.8339 21.2106 33.744 21.214C33.0151 21.2141 32.3151 20.9287 31.794 20.419C31.6048 20.2465 31.4411 20.0478 31.308 19.829C31.181 20.049 31.043 20.241 30.861 20.419C30.3399 20.9285 29.6398 21.2136 28.911 21.213C28.151 21.213 27.465 20.91 26.963 20.42C26.7797 20.2421 26.6222 20.0395 26.495 19.818C26.3694 20.0392 26.2135 20.2418 26.032 20.42C25.5108 20.9294 24.8108 21.2145 24.082 21.214H23.922C23.1933 21.2147 22.4933 20.9301 21.972 20.421C21.7901 20.2429 21.6339 20.0403 21.508 19.819L21.506 19.815ZM19.502 22.405V22.407C20.297 22.409 21.002 22.407 21.875 23.36C22.581 23.2871 23.2903 23.2514 24 23.253C24.72 23.253 25.438 23.288 26.125 23.36C26.998 22.407 27.703 22.41 28.497 22.407C28.873 22.407 30.373 22.407 31.417 25.341L32.54 29.369C33.372 32.364 32.274 32.437 30.904 32.439C28.874 32.364 27.748 30.889 27.748 29.414C26.624 29.598 25.312 29.69 24 29.691C22.688 29.691 21.376 29.598 20.252 29.414C20.252 30.889 19.127 32.364 17.096 32.44C15.726 32.436 14.628 32.363 15.46 29.368L16.582 25.341C17.627 22.407 19.127 22.407 19.502 22.407V22.405ZM24 24.714C23.998 24.716 21.86 26.678 21.477 27.376L22.877 27.32V28.54C22.877 28.596 23.437 28.573 24 28.547C24.562 28.573 25.124 28.597 25.124 28.539V27.319L26.524 27.374C26.138 26.677 24 24.713 24 24.713V24.714Z" fill="white"/>
<path d="M55.55 11.1195C55.39 10.8262 55.17 10.6028 54.89 10.4495C54.61 10.2962 54.2833 10.2195 53.91 10.2195C53.4967 10.2195 53.13 10.3128 52.81 10.4995C52.49 10.6862 52.24 10.9528 52.06 11.2995C51.88 11.6462 51.79 12.0462 51.79 12.4995C51.79 12.9662 51.88 13.3728 52.06 13.7195C52.2467 14.0662 52.5033 14.3328 52.83 14.5195C53.1567 14.7062 53.5367 14.7995 53.97 14.7995C54.5033 14.7995 54.94 14.6595 55.28 14.3795C55.62 14.0928 55.8433 13.6962 55.95 13.1895H53.55V12.1195H57.33V13.3395C57.2367 13.8262 57.0367 14.2762 56.73 14.6895C56.4233 15.1028 56.0267 15.4362 55.54 15.6895C55.06 15.9362 54.52 16.0595 53.92 16.0595C53.2467 16.0595 52.6367 15.9095 52.09 15.6095C51.55 15.3028 51.1233 14.8795 50.81 14.3395C50.5033 13.7995 50.35 13.1862 50.35 12.4995C50.35 11.8128 50.5033 11.1995 50.81 10.6595C51.1233 10.1128 51.55 9.68951 52.09 9.38951C52.6367 9.08284 53.2433 8.92951 53.91 8.92951C54.6967 8.92951 55.38 9.12284 55.96 9.50951C56.54 9.88951 56.94 10.4262 57.16 11.1195H55.55ZM59.7658 10.1495V11.8995H62.1158V13.0095H59.7658V14.8595H62.4158V15.9995H58.3658V9.00951H62.4158V10.1495H59.7658ZM68.438 9.01951V10.1495H66.578V15.9995H65.178V10.1495H63.318V9.01951H68.438ZM73.2423 9.01951V15.9995H71.8423V9.01951H73.2423ZM79.3755 9.01951V10.1495H77.5155V15.9995H76.1155V10.1495H74.2555V9.01951H79.3755ZM86.0198 16.0695C85.3665 16.0695 84.7665 15.9162 84.2198 15.6095C83.6732 15.3028 83.2398 14.8795 82.9198 14.3395C82.5998 13.7928 82.4398 13.1762 82.4398 12.4895C82.4398 11.8095 82.5998 11.1995 82.9198 10.6595C83.2398 10.1128 83.6732 9.68618 84.2198 9.37951C84.7665 9.07284 85.3665 8.91951 86.0198 8.91951C86.6798 8.91951 87.2798 9.07284 87.8198 9.37951C88.3665 9.68618 88.7965 10.1128 89.1098 10.6595C89.4298 11.1995 89.5898 11.8095 89.5898 12.4895C89.5898 13.1762 89.4298 13.7928 89.1098 14.3395C88.7965 14.8795 88.3665 15.3028 87.8198 15.6095C87.2732 15.9162 86.6732 16.0695 86.0198 16.0695ZM86.0198 14.8195C86.4398 14.8195 86.8098 14.7262 87.1298 14.5395C87.4498 14.3462 87.6998 14.0728 87.8798 13.7195C88.0598 13.3662 88.1498 12.9562 88.1498 12.4895C88.1498 12.0228 88.0598 11.6162 87.8798 11.2695C87.6998 10.9162 87.4498 10.6462 87.1298 10.4595C86.8098 10.2728 86.4398 10.1795 86.0198 10.1795C85.5998 10.1795 85.2265 10.2728 84.8998 10.4595C84.5798 10.6462 84.3298 10.9162 84.1498 11.2695C83.9698 11.6162 83.8798 12.0228 83.8798 12.4895C83.8798 12.9562 83.9698 13.3662 84.1498 13.7195C84.3298 14.0728 84.5798 14.3462 84.8998 14.5395C85.2265 14.7262 85.5998 14.8195 86.0198 14.8195ZM96.6014 15.9995H95.2014L92.0314 11.2095V15.9995H90.6314V9.00951H92.0314L95.2014 13.8095V9.00951H96.6014V15.9995Z" fill="white"/>
<path d="M54.536 20.3195V36.9995H51.8V20.3195H54.536ZM61.3201 26.0075V33.3275C61.3201 33.8235 61.4321 34.1835 61.6561 34.4075C61.8961 34.6155 62.2961 34.7195 62.8561 34.7195H64.5361V36.9995H62.3761C61.1441 36.9995 60.2001 36.7115 59.5441 36.1355C58.8881 35.5595 58.5601 34.6235 58.5601 33.3275V26.0075H57.0001V23.7755H58.5601V20.4875H61.3201V23.7755H64.5361V26.0075H61.3201ZM66.1458 30.3755C66.1458 29.0155 66.4178 27.8235 66.9618 26.7995C67.5218 25.7595 68.2898 24.9595 69.2658 24.3995C70.2418 23.8395 71.3618 23.5595 72.6258 23.5595C74.2258 23.5595 75.5458 23.9435 76.5858 24.7115C77.6418 25.4635 78.3538 26.5435 78.7218 27.9515H75.7698C75.5298 27.2955 75.1458 26.7835 74.6178 26.4155C74.0898 26.0475 73.4258 25.8635 72.6258 25.8635C71.5058 25.8635 70.6098 26.2635 69.9378 27.0635C69.2818 27.8475 68.9538 28.9515 68.9538 30.3755C68.9538 31.7995 69.2818 32.9115 69.9378 33.7115C70.6098 34.5115 71.5058 34.9115 72.6258 34.9115C74.2098 34.9115 75.2578 34.2155 75.7698 32.8235H78.7218C78.3378 34.1675 77.6178 35.2395 76.5618 36.0395C75.5058 36.8235 74.1938 37.2155 72.6258 37.2155C71.3618 37.2155 70.2418 36.9355 69.2658 36.3755C68.2898 35.7995 67.5218 34.9995 66.9618 33.9755C66.4178 32.9355 66.1458 31.7355 66.1458 30.3755ZM88.2884 23.5595C89.2964 23.5595 90.1924 23.7755 90.9764 24.2075C91.7764 24.6395 92.4004 25.2795 92.8484 26.1275C93.3124 26.9755 93.5444 27.9995 93.5444 29.1995V36.9995H90.8324V29.6075C90.8324 28.4235 90.5364 27.5195 89.9444 26.8955C89.3524 26.2555 88.5444 25.9355 87.5204 25.9355C86.4964 25.9355 85.6804 26.2555 85.0724 26.8955C84.4804 27.5195 84.1844 28.4235 84.1844 29.6075V36.9995H81.4484V19.2395H84.1844V25.3115C84.6484 24.7515 85.2324 24.3195 85.9364 24.0155C86.6564 23.7115 87.4404 23.5595 88.2884 23.5595ZM98.1384 37.1675C97.6424 37.1675 97.2264 36.9995 96.8904 36.6635C96.5544 36.3275 96.3864 35.9115 96.3864 35.4155C96.3864 34.9195 96.5544 34.5035 96.8904 34.1675C97.2264 33.8315 97.6424 33.6635 98.1384 33.6635C98.6184 33.6635 99.0264 33.8315 99.3624 34.1675C99.6984 34.5035 99.8664 34.9195 99.8664 35.4155C99.8664 35.9115 99.6984 36.3275 99.3624 36.6635C99.0264 36.9995 98.6184 37.1675 98.1384 37.1675ZM104.215 22.0235C103.719 22.0235 103.303 21.8555 102.967 21.5195C102.631 21.1835 102.463 20.7675 102.463 20.2715C102.463 19.7755 102.631 19.3595 102.967 19.0235C103.303 18.6875 103.719 18.5195 104.215 18.5195C104.695 18.5195 105.103 18.6875 105.439 19.0235C105.775 19.3595 105.943 19.7755 105.943 20.2715C105.943 20.7675 105.775 21.1835 105.439 21.5195C105.103 21.8555 104.695 22.0235 104.215 22.0235ZM105.559 23.7755V36.9995H102.823V23.7755H105.559ZM114.888 37.2155C113.64 37.2155 112.512 36.9355 111.504 36.3755C110.496 35.7995 109.704 34.9995 109.128 33.9755C108.552 32.9355 108.264 31.7355 108.264 30.3755C108.264 29.0315 108.56 27.8395 109.152 26.7995C109.744 25.7595 110.552 24.9595 111.576 24.3995C112.6 23.8395 113.744 23.5595 115.008 23.5595C116.272 23.5595 117.416 23.8395 118.44 24.3995C119.464 24.9595 120.272 25.7595 120.864 26.7995C121.456 27.8395 121.752 29.0315 121.752 30.3755C121.752 31.7195 121.448 32.9115 120.84 33.9515C120.232 34.9915 119.4 35.7995 118.344 36.3755C117.304 36.9355 116.152 37.2155 114.888 37.2155ZM114.888 34.8395C115.592 34.8395 116.248 34.6715 116.856 34.3355C117.48 33.9995 117.984 33.4955 118.368 32.8235C118.752 32.1515 118.944 31.3355 118.944 30.3755C118.944 29.4155 118.76 28.6075 118.392 27.9515C118.024 27.2795 117.536 26.7755 116.928 26.4395C116.32 26.1035 115.664 25.9355 114.96 25.9355C114.256 25.9355 113.6 26.1035 112.992 26.4395C112.4 26.7755 111.928 27.2795 111.576 27.9515C111.224 28.6075 111.048 29.4155 111.048 30.3755C111.048 31.7995 111.408 32.9035 112.128 33.6875C112.864 34.4555 113.784 34.8395 114.888 34.8395Z" fill="white"/>
<rect x="50" y="40.9995" width="108" height="0.001" fill="white"/>
</svg>
